<svg xmlns="http://www.w3.org/2000/svg">
    <g class="iconsvg-imagesvg" transform="translate(0,0)">
        <g>
            <rect fill="#42bdd8" fill-opacity="0" stroke-width="2" x="0" y="0" width="60" height="60"
                class="image-rect"></rect> <svg x="0" y="0" width="60" height="60" filtersec="colorsb1740893340"
                class="image-svg-svg primary" style="overflow: visible;"><svg xmlns="http://www.w3.org/2000/svg"
                    viewBox="0 0 293.489990234375 293.489990234375">
                    <g>
                        <g fill="#42bdd8">
                            <path
                                d="M198 93a1.83 1.83 0 0 0-.08-.25 2 2 0 0 0-.11-.35 1.38 1.38 0 0 0-.14-.27c0-.1-.09-.19-.15-.29a3.09 3.09 0 0 0-.33-.39.31.31 0 0 0-.07-.09l-.13-.11a3.26 3.26 0 0 0-.36-.29 2.15 2.15 0 0 0-.26-.14 2.85 2.85 0 0 0-.3-.16l-.3-.09-.3-.09a3.05 3.05 0 0 0-.52 0h-19.29a30.52 30.52 0 0 0-58.18 1 29.76 29.76 0 0 0 7.73 58.5h20.32l17 15a24.14 24.14 0 0 1 8.3 18.21v10.11a24.55 24.55 0 0 1-.24 3.23 23 23 0 0 1-2.35.12h-45.35a23.17 23.17 0 0 1-.26-3.35v-14.23a3.22 3.22 0 0 0-5.49-2.27l-20.77 20.82-.07.08a4.12 4.12 0 0 0-.33.4c-.06.09-.1.19-.15.28s-.1.18-.14.27a2.47 2.47 0 0 0-.11.36 1 1 0 0 0-.07.25 3.93 3.93 0 0 0-.07.6 2.73 2.73 0 0 0 .07.64 1.82 1.82 0 0 0 .07.25 2.35 2.35 0 0 0 .11.35 2.49 2.49 0 0 0 .15.28c0 .09.09.19.14.27a3.17 3.17 0 0 0 .4.49l.06.06a3.47 3.47 0 0 0 .42.34l.25.13a1.82 1.82 0 0 0 .31.16l.3.1c.1 0 .2.07.3.09a2.59 2.59 0 0 0 .48 0h19.33A30.52 30.52 0 0 0 176 202a29.76 29.76 0 0 0-7.73-58.5H148l-17-15a24.09 24.09 0 0 1-8.3-18.21V100.2a24.7 24.7 0 0 1 .24-3.24c.77-.07 1.55-.11 2.34-.11h45.4a24.43 24.43 0 0 1 .26 3.35v14.24a3.21 3.21 0 0 0 5.49 2.27l20.69-20.81a.5.5 0 0 0 .07-.08 3.29 3.29 0 0 0 .33-.41 2.34 2.34 0 0 0 .15-.27c.05-.1.11-.18.15-.28a3.57 3.57 0 0 0 .1-.35 1.83 1.83 0 0 0 .08-.25 3.05 3.05 0 0 0 .06-.6A3.36 3.36 0 0 0 198 93zm-91.61 103.67l9.81-9.83v6.48a30.91 30.91 0 0 0 .19 3.35zm40.36 20.77a24.13 24.13 0 0 1-22-14.34h44.07a24.12 24.12 0 0 1-22.07 14.34zM168.28 150a23.34 23.34 0 0 1 8.94 44.91c0-.52.08-1 .08-1.56v-10.14a30.57 30.57 0 0 0-10.5-23.05L155.25 150zm-41.59-16.62l11.55 10.19h-13a23.34 23.34 0 0 1-8.93-44.91c0 .52-.08 1-.08 1.57v10.1a30.54 30.54 0 0 0 10.46 23.02zm-1.48-42.93h-.5a24.09 24.09 0 0 1 44.07 0zm51.89 6.43h10l-9.8 9.82v-6.5a30.75 30.75 0 0 0-.2-3.35z">
                            </path>
                            <path
                                d="M146.75 0C65.83 0 0 65.83 0 146.75s65.83 146.74 146.75 146.74 146.74-65.83 146.74-146.74S227.66 0 146.75 0zM287 143.53h-12.13C274 96.93 254 55.61 223.61 29.42A140.32 140.32 0 0 1 287 143.53zm-140.25 125a3.22 3.22 0 0 0-3.22 3.21V287C77.89 285 25 222.88 25 146.77a3.22 3.22 0 0 0-3.22-3.22H6.5C8.47 77.89 70.61 25 146.72 25a3.21 3.21 0 0 0 3.28-3.2V6.5c65.64 2 118.51 64.12 118.52 140.23a3.21 3.21 0 0 0 3.21 3.21H287c-2 65.66-64.12 118.53-140.23 118.54zm-3.24-262v12.09c-46.6.88-87.92 20.83-114.11 51.26A140.32 140.32 0 0 1 143.53 6.47zM6.47 150h12.15c.88 46.61 20.83 87.93 51.26 114.12A140.32 140.32 0 0 1 6.47 150zM150 287v-12.12c46.6-.88 87.92-20.83 114.11-51.26A140.31 140.31 0 0 1 150 287z">
                            </path>
                        </g>
                    </g>
                </svg></svg>
            <!---->
        </g>
    </g>
</svg>