<svg xmlns="http://www.w3.org/2000/svg" xmlns:xlink="http://www.w3.org/1999/xlink" width="160" height="160"
    viewBox="0 0 160 160" fill="none">
    <path fill="#FFFFFF" fill-opacity="0" d="M0 160L160 160L160 0L0 0L0 160Z">
    </path>
    <rect x="16" y="16" width="128" height="128" rx="31" fill="#FFFFFF">
    </rect>
    <path fill="rgba(117, 91, 231, 1)"
        d="M47 14L113 14C131.225 14 146 28.7746 146 47L146 113C146 131.225 131.225 146 113 146L47 146C28.7746 146 14 131.225 14 113L14 47C14 28.7746 28.7746 14 47 14ZM47 18C30.9837 18 18 30.9837 18 47L18 113C18 129.016 30.9837 142 47 142L113 142C129.016 142 142 129.016 142 113L142 47C142 30.9837 129.016 18 113 18L47 18Z">
    </path>
    <path
        d="M96.9984 93.721L79.8992 93.721C79.6732 93.721 79.4473 93.7155 79.2216 93.7043C78.9958 93.6932 78.7704 93.6767 78.5455 93.6545C78.3206 93.6323 78.0963 93.6047 77.8728 93.5715C77.6492 93.5384 77.4265 93.4998 77.2048 93.4556C76.9832 93.4115 76.7627 93.362 76.5434 93.3071C76.3242 93.2522 76.1064 93.1919 75.8901 93.1263C75.6738 93.0607 75.4593 92.9898 75.2465 92.9136C75.0336 92.8376 74.8228 92.7562 74.614 92.6697C74.4052 92.5832 74.1986 92.4916 73.9943 92.395C73.7899 92.2984 73.5881 92.1968 73.3888 92.0902C73.1894 91.9836 72.9929 91.8723 72.799 91.7561C72.6051 91.6399 72.4142 91.519 72.2263 91.3935C72.0383 91.2678 71.8536 91.1378 71.6721 91.0031C71.4905 90.8685 71.3123 90.7295 71.1376 90.586C70.9629 90.4427 70.7919 90.2951 70.6244 90.1433C70.4569 89.9915 70.2933 89.8357 70.1335 89.6758C69.9736 89.516 69.8178 89.3524 69.666 89.1849C69.5142 89.0175 69.3666 88.8464 69.2233 88.6717C69.0798 88.4969 68.9408 88.3188 68.8062 88.1372C68.6715 87.9557 68.5414 87.7709 68.4158 87.583C68.2902 87.3951 68.1694 87.2041 68.0532 87.0103C67.937 86.8165 67.8257 86.6198 67.7191 86.4205C67.6125 86.2211 67.5109 86.0194 67.4143 85.815C67.3176 85.6107 67.2261 85.4041 67.1396 85.1953C67.053 84.9865 66.9718 84.7757 66.8957 84.5629C66.8195 84.35 66.7486 84.1355 66.683 83.9192C66.6174 83.7029 66.5571 83.4851 66.5022 83.2659C66.4473 83.0466 66.3978 82.8262 66.3537 82.6045C66.3096 82.3828 66.271 82.1601 66.2378 81.9365C66.2046 81.713 66.1769 81.4887 66.1548 81.2638C66.1326 81.0388 66.116 80.8135 66.105 80.5877C66.0938 80.362 66.0883 80.1361 66.0883 79.9101C66.0883 79.6841 66.0938 79.4582 66.105 79.2324C66.116 79.0067 66.1326 78.7813 66.1548 78.5564C66.1769 78.3314 66.2046 78.1072 66.2378 77.8836C66.271 77.66 66.3096 77.4374 66.3537 77.2157C66.3978 76.994 66.4473 76.7736 66.5022 76.5543C66.5571 76.335 66.6174 76.1173 66.683 75.901C66.7486 75.6847 66.8195 75.4701 66.8957 75.2573C66.9718 75.0445 67.053 74.8337 67.1396 74.6249C67.2261 74.416 67.3176 74.2095 67.4143 74.0051C67.5109 73.8008 67.6125 73.599 67.7191 73.3997C67.8257 73.2004 67.937 73.0037 68.0532 72.8098C68.1694 72.616 68.2902 72.4251 68.4158 72.2371C68.5414 72.0492 68.6715 71.8645 68.8062 71.6829C68.9408 71.5014 69.0798 71.3233 69.2233 71.1485C69.3666 70.9738 69.5142 70.8027 69.666 70.6353C69.8178 70.4678 69.9736 70.3041 70.1335 70.1443C70.2933 69.9845 70.4569 69.8287 70.6244 69.6769C70.7919 69.5251 70.9629 69.3775 71.1376 69.2341C71.3123 69.0907 71.4905 68.9517 71.6721 68.817C71.8536 68.6824 72.0383 68.5523 72.2263 68.4267C72.4142 68.3012 72.6051 68.1803 72.799 68.0641C72.9929 67.9479 73.1894 67.8365 73.3888 67.73C73.5881 67.6234 73.7899 67.5218 73.9943 67.4252C74.1986 67.3286 74.4052 67.2369 74.614 67.1505C74.8228 67.064 75.0336 66.9826 75.2465 66.9065C75.4593 66.8304 75.6738 66.7595 75.8901 66.6939C76.1064 66.6283 76.3242 66.568 76.5434 66.513C76.7627 66.4581 76.9832 66.4087 77.2048 66.3645C77.4265 66.3204 77.6492 66.2818 77.8728 66.2487C78.0963 66.2155 78.3206 66.1878 78.5455 66.1657C78.7704 66.1435 78.9958 66.1269 79.2216 66.1158C79.4473 66.1047 79.6732 66.0992 79.8992 66.0992L96.9984 66.0992C97.1383 66.0992 97.2781 66.0958 97.418 66.0889C97.5576 66.082 97.6971 66.0718 97.8364 66.058C97.9757 66.0443 98.1145 66.0272 98.2529 66.0067C98.3913 65.9861 98.5292 65.9622 98.6664 65.9349C98.8036 65.9076 98.9401 65.877 99.0758 65.843C99.2115 65.809 99.3464 65.7717 99.4803 65.731C99.6142 65.6904 99.7469 65.6466 99.8787 65.5994C100.01 65.5523 100.141 65.502 100.27 65.4484C100.399 65.3948 100.527 65.3381 100.654 65.2784C100.78 65.2185 100.905 65.1556 101.029 65.0897C101.152 65.0237 101.274 64.9547 101.394 64.8828C101.514 64.8109 101.632 64.736 101.748 64.6583C101.865 64.5806 101.979 64.5 102.091 64.4167C102.204 64.3334 102.314 64.2473 102.422 64.1585C102.53 64.0698 102.636 63.9784 102.74 63.8844C102.844 63.7905 102.945 63.694 103.044 63.5951C103.143 63.4961 103.239 63.3948 103.333 63.2912C103.427 63.1875 103.519 63.0816 103.607 62.9734C103.696 62.8652 103.782 62.755 103.866 62.6426C103.949 62.5302 104.029 62.4158 104.107 62.2995C104.185 62.1831 104.26 62.065 104.332 61.9449C104.404 61.8249 104.473 61.7032 104.539 61.5799C104.604 61.4564 104.667 61.3315 104.727 61.205C104.787 61.0785 104.844 60.9506 104.897 60.8214C104.951 60.6921 105.001 60.5616 105.048 60.4299C105.095 60.2981 105.139 60.1653 105.18 60.0314C105.221 59.8975 105.258 59.7627 105.292 59.6269C105.326 59.4913 105.356 59.3548 105.384 59.2175C105.411 59.0803 105.435 58.9425 105.456 58.8041C105.476 58.6656 105.493 58.5268 105.507 58.3876C105.521 58.2483 105.531 58.1089 105.538 57.9691C105.545 57.8293 105.548 57.6895 105.548 57.5496C105.548 57.4097 105.545 57.2698 105.538 57.1301C105.531 56.9903 105.521 56.8508 105.507 56.7116C105.493 56.5724 105.476 56.4335 105.456 56.2951C105.435 56.1566 105.411 56.0189 105.384 55.8816C105.356 55.7444 105.326 55.6079 105.292 55.4722C105.258 55.3365 105.221 55.2017 105.18 55.0678C105.139 54.9339 105.095 54.801 105.048 54.6693C105.001 54.5376 104.951 54.4071 104.897 54.2778C104.844 54.1485 104.787 54.0206 104.727 53.8941C104.667 53.7677 104.604 53.6427 104.539 53.5193C104.473 53.3959 104.404 53.2742 104.332 53.1542C104.26 53.0342 104.185 52.916 104.107 52.7997C104.029 52.6833 103.949 52.569 103.866 52.4566C103.782 52.3442 103.696 52.2339 103.607 52.1258C103.519 52.0176 103.427 51.9117 103.333 51.808C103.239 51.7043 103.143 51.603 103.044 51.5041C102.945 51.4052 102.844 51.3087 102.74 51.2147C102.636 51.1208 102.53 51.0294 102.422 50.9406C102.314 50.8519 102.204 50.7658 102.091 50.6825C101.979 50.5991 101.865 50.5186 101.748 50.4408C101.632 50.3631 101.514 50.2883 101.394 50.2163C101.274 50.1444 101.152 50.0755 101.029 50.0095C100.905 49.9435 100.78 49.8806 100.654 49.8208C100.527 49.761 100.399 49.7043 100.27 49.6508C100.141 49.5972 100.01 49.5469 99.8787 49.4997C99.7469 49.4526 99.6142 49.4087 99.4803 49.3681C99.3464 49.3275 99.2115 49.2902 99.0758 49.2562C98.9401 49.2222 98.8036 49.1915 98.6664 49.1642C98.5292 49.137 98.3913 49.113 98.2529 49.0925C98.1145 49.072 97.9757 49.0549 97.8364 49.0411C97.6971 49.0274 97.5576 49.0171 97.418 49.0103C97.2781 49.0034 97.1383 49 96.9984 49L79.8992 49C79.3935 49.0001 78.888 49.0127 78.3829 49.0377C77.8777 49.0627 77.3735 49.1001 76.8702 49.1498C76.3669 49.1995 75.8651 49.2616 75.3649 49.3359C74.8646 49.4103 74.3665 49.4969 73.8705 49.5957C73.3745 49.6945 72.8812 49.8055 72.3906 49.9285C71.9 50.0515 71.4128 50.1865 70.9288 50.3335C70.4449 50.4804 69.9649 50.6391 69.4888 50.8097C69.0126 50.9802 68.5409 51.1623 68.0737 51.3559C67.6065 51.5496 67.1443 51.7546 66.6872 51.971C66.23 52.1873 65.7784 52.4147 65.3325 52.6533C64.8864 52.8918 64.4466 53.1411 64.0129 53.4012C63.5791 53.6613 63.1521 53.9319 62.7316 54.213C62.3111 54.494 61.8978 54.7853 61.4917 55.0866C61.0855 55.388 60.6869 55.6991 60.2961 56.0201C59.9052 56.341 59.5224 56.6713 59.1477 57.011C58.773 57.3507 58.4069 57.6994 58.0494 58.0571C57.6917 58.4148 57.3432 58.781 57.0036 59.1558C56.664 59.5307 56.3339 59.9135 56.0131 60.3045C55.6923 60.6955 55.3813 61.0942 55.0801 61.5004C54.7788 61.9067 54.4878 62.3201 54.2068 62.7407C53.9259 63.1613 53.6555 63.5884 53.3955 64.0223C53.1355 64.4561 52.8864 64.896 52.648 65.3421C52.4096 65.7882 52.1824 66.2398 51.9662 66.697C51.75 67.1543 51.5451 67.6165 51.3516 68.0837C51.1581 68.551 50.9762 69.0228 50.8058 69.499C50.6355 69.9752 50.4769 70.4553 50.3302 70.9392C50.1834 71.4232 50.0485 71.9105 49.9257 72.4012C49.8028 72.8918 49.6921 73.3851 49.5934 73.8811C49.4948 74.3772 49.4084 74.8754 49.3342 75.3756C49.26 75.8759 49.1981 76.3777 49.1485 76.881C49.099 77.3843 49.0618 77.8886 49.037 78.3937C49.0122 78.8989 48.9998 79.4043 48.9998 79.9101C48.9998 80.4158 49.0122 80.9213 49.037 81.4265C49.0618 81.9316 49.099 82.4358 49.1485 82.9391C49.1981 83.4425 49.26 83.9443 49.3342 84.4445C49.4084 84.9448 49.4948 85.443 49.5934 85.9391C49.6921 86.4351 49.8028 86.9284 49.9257 87.419C50.0485 87.9096 50.1834 88.397 50.3302 88.8809C50.4769 89.3649 50.6355 89.845 50.8058 90.3212C50.9762 90.7974 51.1581 91.2692 51.3516 91.7364C51.5451 92.2037 51.75 92.6659 51.9662 93.1232C52.1824 93.5804 52.4096 94.032 52.648 94.4781C52.8864 94.9242 53.1355 95.3641 53.3955 95.798C53.6555 96.2318 53.9259 96.6589 54.2068 97.0795C54.4878 97.5 54.7788 97.9135 55.0801 98.3198C55.3813 98.726 55.6923 99.1247 56.0131 99.5157C56.3339 99.9066 56.664 100.29 57.0036 100.664C57.3432 101.039 57.6917 101.405 58.0494 101.763C58.4069 102.121 58.773 102.469 59.1477 102.809C59.5224 103.149 59.9052 103.479 60.2961 103.8C60.6869 104.121 61.0855 104.432 61.4917 104.734C61.8978 105.035 62.3111 105.326 62.7316 105.607C63.1521 105.888 63.5791 106.159 64.0129 106.419C64.4466 106.679 64.8864 106.928 65.3325 107.167C65.7784 107.405 66.23 107.633 66.6872 107.849C67.1443 108.066 67.6065 108.271 68.0737 108.464C68.5409 108.658 69.0126 108.84 69.4888 109.011C69.9649 109.181 70.4449 109.34 70.9288 109.487C71.4128 109.634 71.9 109.769 72.3906 109.892C72.8812 110.015 73.3745 110.126 73.8705 110.224C74.3665 110.323 74.8646 110.41 75.3649 110.484C75.8651 110.559 76.3669 110.621 76.8702 110.67C77.3735 110.72 77.8777 110.757 78.3829 110.782C78.888 110.807 79.3935 110.82 79.8992 110.82L96.9984 110.82C97.1383 110.82 97.2781 110.817 97.418 110.81C97.5576 110.803 97.6971 110.793 97.8364 110.779C97.9757 110.765 98.1145 110.748 98.2529 110.728C98.3913 110.707 98.5292 110.683 98.6664 110.656C98.8036 110.629 98.9401 110.598 99.0758 110.564C99.2115 110.53 99.3464 110.493 99.4803 110.452C99.6142 110.411 99.7469 110.368 99.8787 110.32C100.01 110.273 100.141 110.223 100.27 110.169C100.399 110.116 100.527 110.059 100.654 109.999C100.78 109.94 100.905 109.877 101.029 109.811C101.152 109.745 101.274 109.676 101.394 109.604C101.514 109.532 101.632 109.457 101.748 109.379C101.865 109.302 101.979 109.221 102.091 109.138C102.204 109.054 102.314 108.968 102.422 108.88C102.53 108.791 102.636 108.699 102.74 108.605C102.844 108.511 102.945 108.415 103.044 108.316C103.143 108.217 103.239 108.116 103.333 108.012C103.427 107.908 103.519 107.803 103.607 107.694C103.696 107.586 103.782 107.476 103.866 107.364C103.949 107.251 104.029 107.137 104.107 107.02C104.185 106.904 104.26 106.786 104.332 106.666C104.404 106.546 104.473 106.424 104.539 106.301C104.604 106.177 104.667 106.052 104.727 105.926C104.787 105.8 104.844 105.672 104.897 105.542C104.951 105.413 105.001 105.283 105.048 105.151C105.095 105.019 105.139 104.886 105.18 104.752C105.221 104.619 105.258 104.484 105.292 104.348C105.326 104.212 105.356 104.076 105.384 103.939C105.411 103.801 105.435 103.664 105.456 103.525C105.476 103.387 105.493 103.248 105.507 103.109C105.521 102.969 105.531 102.83 105.538 102.69C105.545 102.55 105.548 102.41 105.548 102.271C105.548 102.131 105.545 101.991 105.538 101.851C105.531 101.711 105.521 101.572 105.507 101.433C105.493 101.293 105.476 101.155 105.456 101.016C105.435 100.878 105.411 100.74 105.384 100.603C105.356 100.465 105.326 100.329 105.292 100.193C105.258 100.058 105.221 99.9227 105.18 99.7888C105.139 99.6549 105.095 99.522 105.048 99.3903C105.001 99.2586 104.951 99.128 104.897 98.9988C104.844 98.8696 104.787 98.7417 104.727 98.6152C104.667 98.4887 104.604 98.3638 104.539 98.2403C104.473 98.1169 104.404 97.9953 104.332 97.8752C104.26 97.7552 104.185 97.637 104.107 97.5207C104.029 97.4044 103.949 97.29 103.866 97.1776C103.782 97.0652 103.696 96.955 103.607 96.8468C103.519 96.7386 103.427 96.6327 103.333 96.529C103.239 96.4254 103.143 96.3241 103.044 96.2251C102.945 96.1261 102.844 96.0297 102.74 95.9357C102.636 95.8418 102.53 95.7504 102.422 95.6617C102.314 95.5729 102.204 95.4868 102.091 95.4035C101.979 95.3202 101.865 95.2396 101.748 95.1619C101.632 95.0841 101.514 95.0093 101.394 94.9373C101.274 94.8654 101.152 94.7965 101.029 94.7305C100.905 94.6645 100.78 94.6017 100.654 94.5418C100.527 94.482 100.399 94.4253 100.27 94.3718C100.141 94.3182 100.01 94.2679 99.8787 94.2207C99.7469 94.1736 99.6142 94.1297 99.4803 94.0891C99.3464 94.0485 99.2115 94.0112 99.0758 93.9772C98.9401 93.9432 98.8036 93.9126 98.6664 93.8853C98.5292 93.858 98.3913 93.834 98.2529 93.8135C98.1145 93.793 97.9757 93.7759 97.8364 93.7622C97.6971 93.7484 97.5576 93.7382 97.418 93.7313C97.2781 93.7244 97.1383 93.721 96.9984 93.721Z"
        fill="#755BE7">
    </path>
    <g opacity="0.6">
        <circle cx="79.89931106567383" cy="79.91011428833008" r="8.549610137939453" fill="#FFA000">
        </circle>
    </g>
    <g opacity="0.8">
        <circle cx="88.44887161254883" cy="79.91011428833008" r="8.549610137939453" fill="#FFA000">
        </circle>
    </g>
    <circle cx="96.99846267700195" cy="79.91011428833008" r="8.549610137939453" fill="#FFA000">
    </circle>
</svg>