<svg xmlns="http://www.w3.org/2000/svg">
    <g data-v-0dd9719b="" fill="#42bdd8" class="icon-text-wrapper icon-svg-group iconsvg"
        transform="translate(59.51499938964844,91.06834030151367)">
        <g transform="translate(67,13.640409469604492)">
            <g data-gra="path-name" fill-rule="" class="tp-name iconsvg-namesvg" transform="translate(0,0)">
                <g transform="scale(1)">
                    <g>
                        <path
                            d="M10.27-5.16L16.75-5.16Q17.81-5.16 18.54-5.89 19.27-6.62 19.27-7.68L19.27-7.68Q19.27-8.74 18.54-9.47 17.81-10.2 16.75-10.2L16.75-10.2 10.27-10.2Q8.67-10.2 7.26-10.8 5.85-11.41 4.81-12.45 3.77-13.49 3.16-14.9 2.56-16.31 2.56-17.92L2.56-17.92Q2.56-19.49 3.16-20.9 3.77-22.3 4.81-23.35 5.85-24.39 7.26-24.99 8.67-25.59 10.27-25.59L10.27-25.59 16.75-25.59Q18.35-25.59 19.74-24.99 21.13-24.39 22.18-23.35 23.22-22.3 23.84-20.9 24.46-19.49 24.46-17.92L24.46-17.92Q24.46-17.88 24.42-17.88L24.42-17.88 19.31-17.88Q19.27-17.88 19.27-17.92L19.27-17.92Q19.27-18.94 18.54-19.69 17.81-20.44 16.75-20.44L16.75-20.44 10.27-20.44Q9.21-20.44 8.46-19.69 7.71-18.94 7.71-17.92L7.71-17.92Q7.71-16.86 8.46-16.11 9.21-15.36 10.27-15.36L10.27-15.36 16.75-15.36Q18.35-15.36 19.74-14.75 21.13-14.15 22.18-13.11 23.22-12.07 23.84-10.66 24.46-9.25 24.46-7.68L24.46-7.68Q24.46-6.07 23.84-4.68 23.22-3.29 22.18-2.23 21.13-1.17 19.74-0.57 18.35 0.04 16.75 0.04L16.75 0.04 10.27 0.04Q8.67 0.04 7.26-0.57 5.85-1.17 4.81-2.23 3.77-3.29 3.16-4.68 2.56-6.07 2.56-7.68L2.56-7.68Q2.56-7.68 2.6-7.68L2.6-7.68 7.71-7.68Q7.71-7.68 7.71-7.68L7.71-7.68Q7.71-6.62 8.46-5.89 9.21-5.16 10.27-5.16L10.27-5.16ZM37.04-20.44L28.7-20.44Q28.67-20.44 28.67-20.44L28.67-20.44 28.67-25.56Q28.67-25.59 28.7-25.59L28.7-25.59 50.53-25.59Q50.53-25.59 50.53-25.56L50.53-25.56 50.53-20.44Q50.53-20.44 50.53-20.44L50.53-20.44 42.19-20.44 42.19 0Q42.19 0.04 42.16 0.04L42.16 0.04 37.04 0.04Q37.04 0.04 37.04 0L37.04 0 37.04-20.44ZM57.07-8.59L51.55-8.59 51.52-8.59 51.52-8.63 54.3-17.22Q54.3-17.33 54.33-17.22L54.33-17.22 57.11-8.63 57.11-8.59 57.07-8.59ZM49.91-3.51L58.72-3.51 58.76-3.51 59.89 0 59.89 0 59.85 0.04 48.78 0.04 48.74 0 48.74 0 49.87-3.51 49.91-3.51ZM82.6-7.24L87.06 0 87.06 0 87.06 0.04 81.02 0.04 81.02 0 77.55-5.59Q77.29-5.56 77.07-5.56L77.07-5.56 70.35-5.56 70.35 0Q70.35 0.04 70.35 0.04L70.35 0.04 65.23 0.04 65.19 0 65.19 0 56.97-25.56 56.97-25.59 57-25.59 77.07-25.59Q79.12-25.59 80.95-24.81 82.78-24.02 84.13-22.67 85.48-21.32 86.27-19.49 87.06-17.66 87.06-15.58L87.06-15.58Q87.06-13.05 85.89-10.86 84.72-8.67 82.6-7.24L82.6-7.24ZM79.85-11.63L79.85-11.63Q80.84-12.32 81.37-13.36 81.9-14.41 81.9-15.58L81.9-15.58Q81.9-16.6 81.52-17.48 81.13-18.35 80.48-19.01 79.82-19.67 78.94-20.05 78.06-20.44 77.07-20.44L77.07-20.44 70.35-20.44 70.35-10.75 77.07-10.75Q78.61-10.75 79.85-11.63ZM99.31-20.44L90.97-20.44Q90.93-20.44 90.93-20.44L90.93-20.44 90.93-25.56Q90.93-25.59 90.97-25.59L90.97-25.59 112.8-25.59Q112.8-25.59 112.8-25.56L112.8-25.56 112.8-20.44Q112.8-20.44 112.8-20.44L112.8-20.44 104.46-20.44 104.46 0Q104.46 0.04 104.42 0.04L104.42 0.04 99.31 0.04Q99.31 0.04 99.31 0L99.31 0 99.31-20.44ZM129.62-25.56L129.62-10.9Q129.62-9.69 129.16-8.63 128.7-7.57 127.9-6.78 127.09-6 126.03-5.54 124.97-5.08 123.77-5.08L123.77-5.08Q122.56-5.08 121.5-5.54 120.44-6 119.65-6.78 118.87-7.57 118.41-8.63 117.95-9.69 117.95-10.9L117.95-10.9 117.95-25.56Q117.95-25.59 117.99-25.59L117.99-25.59 129.58-25.59Q129.62-25.59 129.62-25.56L129.62-25.56ZM134.7-25.59L146.54-25.59Q148.59-25.59 150.42-24.81 152.25-24.02 153.6-22.67 154.95-21.32 155.74-19.49 156.53-17.66 156.53-15.58L156.53-15.58Q156.53-13.05 155.36-10.84 154.19-8.63 152.03-7.24L152.03-7.24Q149.76-5.74 147.02-5.59L147.02-5.59Q146.8-5.56 146.54-5.56L146.54-5.56 139.82-5.56 139.82 0Q139.82 0.04 139.82 0.04L139.82 0.04 123.77 0.04Q123.77 0.04 123.77 0L123.77 0Q123.77-0.04 123.77-0.04L123.77-0.04Q126.03-0.04 128.01-0.9 129.98-1.76 131.46-3.22 132.94-4.68 133.8-6.67 134.66-8.67 134.66-10.9L134.66-10.9 134.66-25.56Q134.66-25.59 134.7-25.59L134.7-25.59ZM149.32-11.63L149.32-11.63Q150.31-12.32 150.84-13.36 151.37-14.41 151.37-15.58L151.37-15.58Q151.37-16.6 150.99-17.48 150.6-18.35 149.95-19.01 149.29-19.67 148.41-20.05 147.53-20.44 146.54-20.44L146.54-20.44 139.82-20.44 139.82-10.75 146.54-10.75Q148.08-10.75 149.32-11.63Z"
                            transform="translate(-2.559999942779541, 25.59000015258789)"></path>
                    </g>
                    <!---->
                    <!---->
                    <!---->
                    <!---->
                    <!---->
                    <!---->
                    <!---->
                </g>
            </g>
            <g data-gra="path-slogan" fill-rule="" class="tp-slogan iconsvg-slogansvg" fill="#42bdd8"
                transform="translate(5,31.630001068115234)">
                <rect x="0" height="1" y="3.9750003814697266" width="42.2450008392334"></rect>
                <rect height="1" y="3.9750003814697266" width="42.2450008392334" x="101.72500038146973"></rect>
                <g transform="translate(45.2450008392334,0)">
                    <g transform="scale(1)">
                        <path
                            d="M8.06-6.05L8.06-6.05L6.94-6.05Q6.52-7.78 4.55-7.83L4.55-7.83Q1.83-7.69 1.73-4.36L1.73-4.36Q1.73-0.80 4.59-0.80L4.59-0.80Q6.56-0.84 7.03-3.19L7.03-3.19L8.16-3.19Q7.64 0.05 4.36 0.14L4.36 0.14Q0.61 0 0.52-4.31L0.52-4.31Q0.70-8.63 4.55-8.81L4.55-8.81Q7.59-8.72 8.06-6.05ZM16.31-4.27L16.31-4.27Q16.13-7.64 13.31-7.83L13.31-7.83Q10.45-7.69 10.31-4.27L10.31-4.27Q10.45-0.94 13.31-0.80L13.31-0.80Q16.13-0.98 16.31-4.27ZM17.48-4.27L17.48-4.27Q17.20 0 13.31 0.14L13.31 0.14Q9.38 0 9.09-4.27L9.09-4.27Q9.33-8.72 13.31-8.81L13.31-8.81Q17.20-8.67 17.48-4.27ZM27.09-8.58L27.09 0L25.97 0L25.97-5.06Q25.97-5.77 25.97-7.22L25.97-7.22L23.53 0L22.36 0L19.97-7.22L19.92-7.22Q19.92-6.70 19.97-5.67L19.97-5.67Q19.97-5.16 19.97-5.06L19.97-5.06L19.97 0L18.80 0L18.80-8.58L20.48-8.58L22.97-1.31L25.41-8.58L27.09-8.58ZM34.31-3.89L30.09-3.89L30.09 0L28.92 0L28.92-8.58L34.88-8.58L34.88-7.59L30.09-7.59L30.09-4.92L34.31-4.92L34.31-3.89ZM42.98-8.58L39.75-3.47L39.75 0L38.58 0L38.58-3.47L35.34-8.58L36.70-8.58L39.14-4.45L41.63-8.58L42.98-8.58ZM49.69-3.19L49.69-8.58L50.86-8.58L50.86-3.05Q50.72 0.05 47.34 0.14L47.34 0.14Q44.20 0.05 44.06-2.86L44.06-2.86L44.06-8.58L45.23-8.58L45.23-3.19Q45.28-0.84 47.39-0.80L47.39-0.80Q49.69-0.84 49.69-3.19L49.69-3.19ZM52.83-8.58L54-8.58L54 0L52.83 0L52.83-8.58Z"
                            transform="translate(-0.515625, 8.8125)"></path>
                    </g>
                </g>
            </g>
        </g>
    </g>
</svg>