<svg xmlns="http://www.w3.org/2000/svg" xmlns:xlink="http://www.w3.org/1999/xlink" width="229" height="91" viewBox="0 0 229 91" fill="none">
<rect x="0" y="0" width="229" height="91"   fill="#FFFFFF" fill-opacity="0">
</rect>
<path d="M63.7939 38.3375C64.2848 30.2754 68.0679 26.0679 75.1432 25.7151C82.2251 26.0679 86.0082 30.2754 86.4924 38.3375C86.0082 46.2821 82.2251 50.3719 75.1432 50.6071C68.0679 50.3719 64.2848 46.2821 63.7939 38.3375ZM68.0108 38.3375C68.3739 44.2697 70.7514 47.2947 75.1432 47.4123C79.5416 47.2947 81.9224 44.2697 82.2856 38.3375C81.9224 32.4118 79.5416 29.3901 75.1432 29.2725C70.7514 29.3901 68.3739 32.4118 68.0108 38.3375Z"   fill="#755BE7" >
</path>
<path d="M94.24 50.2542L90.0231 50.2542L90.0231 26.4305L94.0584 26.4305L94.0584 29.8017C95.8878 27.0773 98.3863 25.7151 101.554 25.7151C104.365 25.7151 106.44 26.9597 107.778 29.4489C107.906 29.5665 107.97 29.6253 107.97 29.6253C110.163 26.9009 112.664 25.5975 115.476 25.7151C120.473 26.0679 123.035 28.7956 123.163 33.8981L123.163 50.2542L118.946 50.2542L118.946 34.9663C119.067 31.1704 117.544 29.3313 114.376 29.4489C110.96 29.8017 109.066 31.9348 108.696 35.8482L108.696 50.2542L104.49 50.2542L104.49 33.8981C104.49 30.932 103.208 29.4489 100.646 29.4489C96.4964 29.6841 94.3611 32.2909 94.24 37.2692L94.24 50.2542Z"   fill="#755BE7" >
</path>
<path d="M137.879 26.4305L137.879 29.8017L133.662 29.8017L133.662 50.2543L129.637 50.2543L129.637 29.8017L126.348 29.8017L126.348 26.4305L129.637 26.4305L129.637 22.5105C129.637 18.9564 131.712 17.1793 135.861 17.1793C136.595 17.1793 137.267 17.2381 137.879 17.3557L137.879 20.7367C137.267 20.7367 136.655 20.7367 136.043 20.7367C134.456 20.7367 133.662 21.684 133.662 23.5787L133.662 26.4305L137.879 26.4305Z"   fill="#755BE7" >
</path>
<path d="M152.64 45.9913L152.821 45.9913L159.237 26.4305L163.807 26.4305C163.195 27.9658 162.341 30.2754 161.245 33.3591C158.562 40.5915 156.487 46.0469 155.021 49.7251C152.949 54.7035 151.486 57.4867 150.632 58.0747C149.778 59.1461 148.006 59.6231 145.316 59.5055C144.831 59.5055 144.283 59.3847 143.671 59.1429L143.671 55.5855C143.792 55.5855 143.913 55.6475 144.034 55.7717C144.768 56.0069 145.44 56.1245 146.052 56.1245C147.639 56.7191 149.105 54.8799 150.451 50.6071L141.472 26.4305L146.052 26.4305L152.64 45.9913Z"   fill="#755BE7" >
</path>
<path d="M189.669 38.1611L189.669 17.7085L194.249 17.7085L194.249 38.7001C193.886 46.5205 189.309 50.5483 180.519 50.7835C172.341 50.5483 168.07 46.7557 167.707 39.4057L167.707 17.7085L172.287 17.7085L172.287 38.1611C172.408 44.0869 175.212 47.1117 180.7 47.2359C186.679 47.1117 189.669 44.0869 189.669 38.1611Z"   fill="#755BE7" >
</path>
<path d="M197.967 17.7085L202.547 17.7085L202.547 50.2543L197.967 50.2543L197.967 17.7085Z"   fill="#755BE7" >
</path>
<rect x="29.496978759765625" y="68.94281005859375" width="53.42975616455078" height="0.9799957275390625"   fill="#FFA000" >
</rect>
<rect x="144.0732421875" y="68.94281005859375" width="53.4298095703125" height="0.9799957275390625"   fill="#FFA000" >
</rect>
<path d="M92.6213 67.7154L91.5318 67.7154C91.4712 66.6439 90.7482 66.0755 89.3628 66.0102C88.0715 66.0428 87.4258 66.5328 87.4258 67.4802C87.4258 68.0943 87.7722 68.4471 88.4649 68.5386L90.9164 69.0874C92.2144 69.3944 92.8634 70.1621 92.8634 71.3904C92.8298 72.9518 91.6932 73.762 89.4536 73.8208C88.2228 73.8208 87.3552 73.5758 86.8508 73.0858C86.2253 72.6284 85.9261 71.9228 85.953 70.969L87.0929 70.969C87.1198 72.256 87.9067 72.9159 89.4536 72.9486C90.9668 72.9159 91.7402 72.4422 91.7739 71.5276C91.9017 70.7566 91.2695 70.2503 89.8773 70.0086L88.0816 69.6362C86.8508 69.303 86.2354 68.63 86.2354 67.6174C86.3296 65.9644 87.3384 65.1086 89.2619 65.0498C91.441 65.0498 92.5608 65.9383 92.6213 67.7154ZM96.5456 66.2454L93.62 66.2454L93.62 65.2752L100.611 65.2752L100.611 66.2454L97.6855 66.2454L97.6855 73.6836L96.5456 73.6836L96.5456 66.2454ZM107.38 73.6836L106.523 71.2532L103.022 71.2532L102.124 73.6836L100.944 73.6836L104.213 65.2752L105.534 65.2752L108.651 73.6836L107.38 73.6836ZM104.778 66.5198L103.406 70.234L106.099 70.234L104.828 66.5198L104.778 66.5198ZM113.857 70.0576L111.022 70.0576L111.022 73.6836L109.832 73.6836L109.832 65.2752L113.857 65.2752C115.78 65.2752 116.742 66.0265 116.742 67.5292C116.742 68.4438 116.332 69.1168 115.511 69.548C116.204 69.7309 116.551 70.2666 116.551 71.1552L116.641 72.6742C116.614 73.0988 116.759 73.3732 117.075 73.4974L117.075 73.6836L115.602 73.6836C115.508 73.285 115.448 72.5794 115.421 71.5668C115.448 70.5606 114.926 70.0576 113.857 70.0576ZM113.948 66.1964L111.022 66.1964L111.022 69.0874L113.766 69.0874C114.93 69.0874 115.511 68.5974 115.511 67.6174C115.511 66.67 114.99 66.1964 113.948 66.1964ZM120.616 66.2454L117.69 66.2454L117.69 65.2752L124.682 65.2752L124.682 66.2454L121.756 66.2454L121.756 73.6836L120.616 73.6836L120.616 66.2454ZM131.451 70.5574L131.451 65.2752L132.631 65.2752L132.631 70.6946C132.537 72.7199 131.353 73.762 129.08 73.8208C126.968 73.762 125.865 72.782 125.771 70.8808L125.771 65.2752L126.952 65.2752L126.952 70.5574C126.985 72.0927 127.712 72.8734 129.131 72.8996C130.677 72.8734 131.451 72.0927 131.451 70.5574ZM138.119 66.1964L135.748 66.1964L135.748 69.1364L138.069 69.1364C139.266 69.1364 139.865 68.63 139.865 67.6174C139.865 66.7027 139.283 66.229 138.119 66.1964ZM138.492 70.1458L135.748 70.1458L135.748 73.6836L134.568 73.6836L134.568 65.2752L138.492 65.2752C140.133 65.3405 140.984 66.1212 141.045 67.6174C140.951 69.2442 140.1 70.087 138.492 70.1458Z"   fill="#FFA000" >
</path>
<path d="M56.4165 46.5444L46.6496 46.5444C46.5205 46.5444 46.3914 46.5412 46.2625 46.5349C46.1335 46.5285 46.0048 46.519 45.8763 46.5064C45.7479 46.4937 45.6198 46.4779 45.4921 46.459C45.3644 46.44 45.2372 46.418 45.1106 46.3928C44.9839 46.3676 44.858 46.3393 44.7328 46.308C44.6075 46.2766 44.4831 46.2421 44.3596 46.2047C44.236 46.1672 44.1135 46.1267 43.9919 46.0832C43.8704 46.0397 43.75 45.9933 43.6307 45.9439C43.5114 45.8945 43.3934 45.8422 43.2767 45.787C43.16 45.7318 43.0447 45.6738 42.9309 45.6129C42.817 45.552 42.7047 45.4884 42.594 45.422C42.4832 45.3556 42.3742 45.2866 42.2668 45.2149C42.1595 45.1431 42.054 45.0688 41.9503 44.9919C41.8466 44.915 41.7448 44.8356 41.645 44.7537C41.5452 44.6718 41.4475 44.5875 41.3519 44.5008C41.2562 44.4141 41.1627 44.3251 41.0714 44.2338C40.9801 44.1425 40.8911 44.0491 40.8044 43.9534C40.7177 43.8577 40.6334 43.76 40.5515 43.6602C40.4696 43.5604 40.3902 43.4587 40.3133 43.355C40.2364 43.2512 40.1621 43.1457 40.0903 43.0384C40.0186 42.931 39.9496 42.822 39.8832 42.7113C39.8168 42.6005 39.7532 42.4882 39.6924 42.3744C39.6315 42.2605 39.5734 42.1452 39.5183 42.0285C39.463 41.9118 39.4108 41.7938 39.3614 41.6746C39.3119 41.5553 39.2655 41.4349 39.222 41.3133C39.1785 41.1917 39.138 41.0692 39.1006 40.9456C39.0631 40.8221 39.0286 40.6977 38.9973 40.5725C38.9659 40.4472 38.9376 40.3213 38.9125 40.1947C38.8872 40.068 38.8652 39.9409 38.8463 39.8132C38.8273 39.6855 38.8115 39.5574 38.7989 39.4289C38.7862 39.3004 38.7767 39.1717 38.7704 39.0427C38.764 38.9138 38.7609 38.7848 38.7609 38.6557C38.7609 38.5266 38.764 38.3976 38.7704 38.2686C38.7767 38.1396 38.7862 38.0109 38.7989 37.8824C38.8115 37.7539 38.8273 37.6258 38.8463 37.4982C38.8652 37.3704 38.8872 37.2433 38.9125 37.1167C38.9376 36.99 38.9659 36.8641 38.9973 36.7389C39.0286 36.6136 39.0631 36.4892 39.1006 36.3657C39.138 36.2421 39.1785 36.1196 39.222 35.998C39.2655 35.8765 39.3119 35.756 39.3614 35.6368C39.4108 35.5175 39.463 35.3995 39.5183 35.2828C39.5734 35.1661 39.6315 35.0508 39.6924 34.937C39.7532 34.8231 39.8168 34.7108 39.8832 34.6C39.9496 34.4893 40.0186 34.3803 40.0903 34.2729C40.1621 34.1656 40.2364 34.0601 40.3133 33.9564C40.3902 33.8526 40.4696 33.7509 40.5515 33.6511C40.6334 33.5513 40.7177 33.4536 40.8044 33.3579C40.8911 33.2623 40.9801 33.1688 41.0714 33.0775C41.1627 32.9862 41.2562 32.8972 41.3519 32.8105C41.4475 32.7238 41.5452 32.6395 41.645 32.5576C41.7448 32.4757 41.8466 32.3963 41.9503 32.3194C42.054 32.2425 42.1595 32.1681 42.2668 32.0964C42.3742 32.0247 42.4832 31.9557 42.594 31.8893C42.7047 31.8229 42.817 31.7593 42.9309 31.6985C43.0447 31.6376 43.16 31.5795 43.2767 31.5244C43.3934 31.4692 43.5114 31.4168 43.6307 31.3674C43.75 31.318 43.8704 31.2716 43.9919 31.2281C44.1135 31.1846 44.236 31.1441 44.3596 31.1067C44.4831 31.0692 44.6075 31.0347 44.7328 31.0034C44.858 30.972 44.9839 30.9437 45.1106 30.9185C45.2372 30.8933 45.3644 30.8713 45.4921 30.8523C45.6198 30.8334 45.7479 30.8176 45.8763 30.8049C46.0048 30.7923 46.1335 30.7828 46.2625 30.7765C46.3914 30.7701 46.5205 30.767 46.6496 30.767L56.4165 30.767C56.4964 30.767 56.5763 30.765 56.6562 30.7611C56.736 30.7572 56.8156 30.7513 56.8952 30.7434C56.9747 30.7356 57.054 30.7258 57.1331 30.7141C57.2121 30.7024 57.2909 30.6887 57.3693 30.6731C57.4476 30.6575 57.5256 30.64 57.6031 30.6206C57.6806 30.6012 57.7577 30.5799 57.8341 30.5567C57.9106 30.5335 57.9865 30.5084 58.0617 30.4815C58.1369 30.4546 58.2115 30.4258 58.2854 30.3952C58.3592 30.3646 58.4322 30.3323 58.5045 30.2981C58.5767 30.2639 58.6481 30.228 58.7186 30.1903C58.7891 30.1527 58.8586 30.1133 58.9271 30.0722C58.9957 30.0311 59.0632 29.9883 59.1296 29.9439C59.1961 29.8995 59.2614 29.8535 59.3256 29.8059C59.3898 29.7583 59.4528 29.7092 59.5146 29.6584C59.5763 29.6078 59.6369 29.5556 59.6961 29.5019C59.7553 29.4482 59.8131 29.3931 59.8697 29.3366C59.9262 29.2801 59.9813 29.2222 60.035 29.163C60.0886 29.1038 60.1408 29.0433 60.1915 28.9815C60.2422 28.9197 60.2914 28.8568 60.339 28.7926C60.3866 28.7284 60.4326 28.663 60.477 28.5966C60.5214 28.5301 60.5642 28.4626 60.6052 28.3941C60.6463 28.3255 60.6857 28.256 60.7234 28.1856C60.761 28.115 60.797 28.0437 60.8312 27.9714C60.8653 27.8992 60.8977 27.8261 60.9283 27.7523C60.9589 27.6785 60.9876 27.6039 61.0146 27.5287C61.0415 27.4534 61.0665 27.3776 61.0897 27.3011C61.1129 27.2246 61.1342 27.1476 61.1537 27.0701C61.1731 26.9926 61.1906 26.9146 61.2062 26.8362C61.2218 26.7578 61.2354 26.6791 61.2472 26.6C61.2589 26.521 61.2687 26.4417 61.2765 26.3621C61.2843 26.2826 61.2902 26.2029 61.2941 26.1231C61.298 26.0433 61.3 25.9634 61.3 25.8835C61.3 25.8036 61.298 25.7237 61.2941 25.6439C61.2902 25.564 61.2843 25.4844 61.2765 25.4048C61.2687 25.3253 61.2589 25.246 61.2472 25.1669C61.2354 25.0878 61.2218 25.0091 61.2062 24.9308C61.1906 24.8524 61.1731 24.7744 61.1537 24.6969C61.1342 24.6194 61.1129 24.5424 61.0897 24.4659C61.0665 24.3894 61.0415 24.3135 61.0146 24.2383C60.9876 24.163 60.9589 24.0885 60.9283 24.0147C60.8977 23.9408 60.8653 23.8678 60.8312 23.7955C60.797 23.7233 60.761 23.6519 60.7234 23.5814C60.6857 23.5109 60.6463 23.4414 60.6052 23.3729C60.5642 23.3043 60.5214 23.2368 60.477 23.1704C60.4326 23.1039 60.3866 23.0386 60.339 22.9744C60.2914 22.9102 60.2422 22.8472 60.1915 22.7854C60.1408 22.7237 60.0886 22.6632 60.035 22.6039C59.9813 22.5447 59.9262 22.4869 59.8697 22.4303C59.8131 22.3738 59.7553 22.3187 59.6961 22.2651C59.6369 22.2114 59.5763 22.1592 59.5146 22.1085C59.4528 22.0578 59.3898 22.0086 59.3256 21.961C59.2614 21.9134 59.1961 21.8674 59.1296 21.823C59.0632 21.7786 58.9957 21.7359 58.9271 21.6948C58.8586 21.6537 58.7891 21.6143 58.7186 21.5766C58.6481 21.539 58.5767 21.503 58.5045 21.4689C58.4322 21.4347 58.3592 21.4023 58.2854 21.3717C58.2115 21.3411 58.1369 21.3124 58.0617 21.2855C57.9865 21.2585 57.9106 21.2335 57.8341 21.2103C57.7577 21.1871 57.6806 21.1658 57.6031 21.1464C57.5256 21.1269 57.4476 21.1094 57.3693 21.0938C57.2909 21.0782 57.2121 21.0646 57.1331 21.0529C57.054 21.0411 56.9747 21.0313 56.8952 21.0235C56.8156 21.0157 56.736 21.0098 56.6562 21.0059C56.5763 21.002 56.4964 21 56.4165 21L46.6496 21C46.3607 21.0001 46.072 21.0073 45.7835 21.0216C45.4949 21.0358 45.2069 21.0572 44.9194 21.0856C44.6319 21.114 44.3453 21.1494 44.0596 21.1919C43.7738 21.2344 43.4893 21.2838 43.206 21.3403C42.9227 21.3967 42.6409 21.4601 42.3607 21.5304C42.0805 21.6006 41.8022 21.6777 41.5258 21.7617C41.2493 21.8456 40.9752 21.9363 40.7032 22.0337C40.4312 22.1311 40.1618 22.2351 39.8949 22.3457C39.6281 22.4563 39.3641 22.5734 39.1029 22.697C38.8418 22.8206 38.5839 22.9505 38.3291 23.0867C38.0744 23.223 37.8231 23.3654 37.5754 23.514C37.3276 23.6625 37.0837 23.8171 36.8435 23.9776C36.6034 24.1382 36.3673 24.3045 36.1353 24.4767C35.9033 24.6488 35.6756 24.8265 35.4524 25.0098C35.2291 25.1931 35.0104 25.3818 34.7965 25.5759C34.5824 25.7699 34.3733 25.9691 34.1691 26.1734C33.9648 26.3777 33.7657 26.5869 33.5718 26.801C33.3778 27.0151 33.1892 27.2338 33.006 27.4571C32.8227 27.6804 32.6451 27.9081 32.473 28.1402C32.301 28.3722 32.1347 28.6084 31.9742 28.8486C31.8138 29.0888 31.6593 29.3328 31.5108 29.5807C31.3623 29.8284 31.22 30.0797 31.0839 30.3345C30.9477 30.5893 30.8179 30.8473 30.6944 31.1084C30.5709 31.3696 30.4539 31.6336 30.3434 31.9005C30.2328 32.1674 30.1289 32.4369 30.0316 32.7089C29.9343 32.9809 29.8438 33.2551 29.7599 33.5316C29.6761 33.808 29.5991 34.0864 29.5289 34.3666C29.4587 34.6469 29.3954 34.9286 29.3391 35.2119C29.2828 35.4953 29.2334 35.7799 29.191 36.0656C29.1486 36.3514 29.1133 36.638 29.085 36.9255C29.0567 37.213 29.0354 37.501 29.0213 37.7895C29.0071 38.0781 29 38.3668 29 38.6557C29 38.9445 29.0071 39.2333 29.0213 39.5218C29.0354 39.8103 29.0567 40.0984 29.085 40.3858C29.1133 40.6733 29.1486 40.96 29.191 41.2457C29.2334 41.5315 29.2828 41.816 29.3391 42.0994C29.3954 42.3827 29.4587 42.6645 29.5289 42.9447C29.5991 43.2249 29.6761 43.5033 29.7599 43.7797C29.8438 44.0562 29.9343 44.3304 30.0316 44.6024C30.1289 44.8744 30.2328 45.1439 30.3434 45.4108C30.4539 45.6777 30.5709 45.9417 30.6944 46.2029C30.8179 46.4641 30.9477 46.722 31.0839 46.9768C31.22 47.2316 31.3623 47.4829 31.5108 47.7307C31.6593 47.9785 31.8138 48.2225 31.9742 48.4627C32.1347 48.7029 32.301 48.9391 32.473 49.1712C32.6451 49.4032 32.8227 49.6309 33.006 49.8542C33.1892 50.0776 33.3778 50.2963 33.5718 50.5104C33.7657 50.7244 33.9648 50.9336 34.1691 51.138C34.3733 51.3423 34.5824 51.5414 34.7965 51.7355C35.0104 51.9295 35.2291 52.1182 35.4524 52.3015C35.6756 52.4848 35.9033 52.6625 36.1353 52.8347C36.3673 53.0068 36.6034 53.1732 36.8435 53.3337C37.0837 53.4942 37.3276 53.6488 37.5754 53.7974C37.8231 53.946 38.0744 54.0883 38.3291 54.2246C38.5839 54.3608 38.8418 54.4908 39.1029 54.6143C39.3641 54.7379 39.6281 54.855 39.8949 54.9656C40.1618 55.0763 40.4312 55.1802 40.7032 55.2776C40.9752 55.375 41.2493 55.4657 41.5258 55.5497C41.8022 55.6336 42.0805 55.7107 42.3607 55.7809C42.6409 55.8512 42.9227 55.9146 43.206 55.971C43.4893 56.0275 43.7738 56.0769 44.0596 56.1194C44.3453 56.1619 44.6319 56.1974 44.9194 56.2257C45.2069 56.2542 45.4949 56.2755 45.7835 56.2898C46.072 56.304 46.3607 56.3112 46.6496 56.3113L56.4165 56.3113C56.4964 56.3113 56.5763 56.3094 56.6562 56.3054C56.736 56.3015 56.8156 56.2957 56.8952 56.2878C56.9747 56.28 57.054 56.2702 57.1331 56.2585C57.2121 56.2467 57.2909 56.2331 57.3693 56.2175C57.4476 56.2019 57.5256 56.1844 57.6031 56.165C57.6806 56.1455 57.7577 56.1242 57.8341 56.101C57.9106 56.0779 57.9865 56.0528 58.0617 56.0259C58.1369 55.9989 58.2115 55.9702 58.2854 55.9396C58.3592 55.909 58.4322 55.8766 58.5045 55.8424C58.5767 55.8083 58.6481 55.7724 58.7186 55.7347C58.7891 55.697 58.8586 55.6576 58.9271 55.6166C58.9957 55.5755 59.0632 55.5327 59.1296 55.4883C59.1961 55.4439 59.2614 55.3979 59.3256 55.3503C59.3898 55.3027 59.4528 55.2535 59.5146 55.2028C59.5763 55.1521 59.6369 55.1 59.6961 55.0463C59.7553 54.9926 59.8131 54.9375 59.8697 54.881C59.9262 54.8245 59.9813 54.7666 60.035 54.7074C60.0886 54.6482 60.1408 54.5877 60.1915 54.5259C60.2422 54.4641 60.2914 54.4011 60.339 54.3369C60.3866 54.2727 60.4326 54.2074 60.477 54.141C60.5214 54.0745 60.5642 54.007 60.6052 53.9384C60.6463 53.8699 60.6857 53.8004 60.7234 53.7299C60.761 53.6594 60.797 53.588 60.8312 53.5158C60.8653 53.4436 60.8977 53.3705 60.9283 53.2967C60.9589 53.2228 60.9876 53.1483 61.0146 53.0731C61.0415 52.9978 61.0665 52.9219 61.0897 52.8454C61.1129 52.769 61.1342 52.692 61.1537 52.6144C61.1731 52.5369 61.1906 52.459 61.2062 52.3806C61.2218 52.3022 61.2354 52.2235 61.2472 52.1444C61.2589 52.0653 61.2687 51.986 61.2765 51.9065C61.2843 51.827 61.2902 51.7473 61.2941 51.6675C61.298 51.5876 61.3 51.5077 61.3 51.4278C61.3 51.3479 61.298 51.268 61.2941 51.1882C61.2902 51.1084 61.2843 51.0287 61.2765 50.9492C61.2687 50.8697 61.2589 50.7904 61.2472 50.7113C61.2354 50.6322 61.2218 50.5535 61.2062 50.4751C61.1906 50.3967 61.1731 50.3188 61.1537 50.2412C61.1342 50.1637 61.1129 50.0867 61.0897 50.0102C61.0665 49.9338 61.0415 49.8579 61.0146 49.7826C60.9876 49.7074 60.9589 49.6328 60.9283 49.559C60.8977 49.4852 60.8653 49.4121 60.8312 49.3399C60.797 49.2677 60.761 49.1963 60.7234 49.1258C60.6857 49.0553 60.6463 48.9858 60.6052 48.9172C60.5642 48.8487 60.5214 48.7812 60.477 48.7147C60.4326 48.6483 60.3866 48.583 60.339 48.5188C60.2914 48.4546 60.2422 48.3916 60.1915 48.3298C60.1408 48.268 60.0886 48.2075 60.035 48.1483C59.9813 48.0891 59.9262 48.0312 59.8697 47.9747C59.8131 47.9182 59.7553 47.8631 59.6961 47.8094C59.6369 47.7557 59.5763 47.7036 59.5146 47.6529C59.4528 47.6022 59.3898 47.553 59.3256 47.5054C59.2614 47.4578 59.1961 47.4118 59.1296 47.3674C59.0632 47.323 58.9957 47.2802 58.9271 47.2391C58.8586 47.1981 58.7891 47.1587 58.7186 47.121C58.6481 47.0833 58.5767 47.0474 58.5045 47.0132C58.4322 46.9791 58.3592 46.9467 58.2854 46.9161C58.2115 46.8855 58.1369 46.8568 58.0617 46.8298C57.9865 46.8029 57.9106 46.7778 57.8341 46.7547C57.7577 46.7314 57.6806 46.7101 57.6031 46.6907C57.5256 46.6713 57.4476 46.6538 57.3693 46.6382C57.2909 46.6226 57.2121 46.6089 57.1331 46.5972C57.054 46.5855 56.9747 46.5757 56.8952 46.5679C56.8156 46.56 56.736 46.5542 56.6562 46.5503C56.5763 46.5463 56.4964 46.5444 56.4165 46.5444Z"   fill="#755BE7" >
</path>
<g opacity="0.6">
<circle cx="46.649566650390625" cy="38.65571594238281" r="4.88348388671875"   fill="#FFA000" >
</circle>
</g>
<g opacity="0.8">
<circle cx="51.53314208984375" cy="38.65571594238281" r="4.88348388671875"   fill="#FFA000" >
</circle>
</g>
<circle cx="56.41650390625" cy="38.65571594238281" r="4.88348388671875"   fill="#FFA000" >
</circle>
</svg>
