<svg xmlns="http://www.w3.org/2000/svg" xmlns:xlink="http://www.w3.org/1999/xlink" width="56.548309326171875" height="61.82023620605469" viewBox="0 0 56.548309326171875 61.82023620605469" fill="none">
<path d="M47.9987 44.721L30.8995 44.721C30.6734 44.721 30.4475 44.7155 30.2218 44.7044C29.996 44.6933 29.7707 44.6767 29.5457 44.6545C29.3208 44.6324 29.0966 44.6047 28.873 44.5715C28.6494 44.5384 28.4267 44.4998 28.2051 44.4557C27.9834 44.4115 27.7629 44.3621 27.5437 44.3072C27.3244 44.2522 27.1066 44.1919 26.8904 44.1263C26.6741 44.0607 26.4595 43.9898 26.2467 43.9137C26.0339 43.8376 25.823 43.7562 25.6142 43.6697C25.4054 43.5833 25.1989 43.4917 24.9945 43.395C24.7902 43.2984 24.5883 43.1968 24.3891 43.0902C24.1897 42.9837 23.9931 42.8723 23.7992 42.7561C23.6053 42.6399 23.4145 42.519 23.2265 42.3935C23.0386 42.2679 22.8538 42.1378 22.6723 42.0032C22.4907 41.8685 22.3126 41.7295 22.1379 41.5861C21.9632 41.4427 21.7921 41.2951 21.6247 41.1433C21.4571 40.9916 21.2935 40.8358 21.1337 40.6759C20.9738 40.5161 20.818 40.3524 20.6662 40.1849C20.5145 40.0175 20.3669 39.8464 20.2235 39.6717C20.0801 39.4969 19.941 39.3189 19.8064 39.1373C19.6717 38.9557 19.5416 38.771 19.4161 38.5831C19.2905 38.3951 19.1696 38.2042 19.0535 38.0104C18.9373 37.8165 18.8259 37.6199 18.7194 37.4205C18.6128 37.2212 18.5112 37.0194 18.4145 36.8151C18.3179 36.6107 18.2263 36.4042 18.1398 36.1954C18.0533 35.9865 17.972 35.7757 17.8959 35.5629C17.8198 35.3501 17.7489 35.1355 17.6833 34.9192C17.6177 34.7029 17.5573 34.4852 17.5024 34.2659C17.4475 34.0466 17.398 33.8262 17.3539 33.6045C17.3098 33.3828 17.2712 33.1602 17.2381 32.9366C17.2048 32.713 17.1772 32.4888 17.1551 32.2639C17.1329 32.0389 17.1163 31.8135 17.1052 31.5878C17.0941 31.362 17.0886 31.1362 17.0886 30.9101C17.0886 30.6841 17.0941 30.4582 17.1052 30.2325C17.1163 30.0067 17.1329 29.7814 17.1551 29.5564C17.1772 29.3315 17.2048 29.1072 17.2381 28.8837C17.2712 28.6601 17.3098 28.4374 17.3539 28.2157C17.398 27.994 17.4475 27.7736 17.5024 27.5543C17.5573 27.3351 17.6177 27.1173 17.6833 26.901C17.7489 26.6847 17.8198 26.4702 17.8959 26.2574C17.972 26.0445 18.0533 25.8337 18.1398 25.6249C18.2263 25.4161 18.3179 25.2095 18.4145 25.0052C18.5112 24.8008 18.6128 24.5991 18.7194 24.3997C18.8259 24.2004 18.9373 24.0037 19.0535 23.8099C19.1696 23.6161 19.2905 23.4251 19.4161 23.2372C19.5416 23.0493 19.6717 22.8645 19.8064 22.683C19.941 22.5014 20.0801 22.3233 20.2235 22.1485C20.3669 21.9738 20.5145 21.8027 20.6662 21.6353C20.818 21.4678 20.9738 21.3042 21.1337 21.1444C21.2935 20.9845 21.4571 20.8287 21.6247 20.6769C21.7921 20.5251 21.9632 20.3775 22.1379 20.2342C22.3126 20.0907 22.4907 19.9517 22.6723 19.8171C22.8538 19.6824 23.0386 19.5523 23.2265 19.4267C23.4145 19.3012 23.6053 19.1803 23.7992 19.0641C23.9931 18.9479 24.1897 18.8366 24.3891 18.73C24.5883 18.6234 24.7902 18.5218 24.9945 18.4252C25.1989 18.3286 25.4054 18.237 25.6142 18.1505C25.823 18.064 26.0339 17.9827 26.2467 17.9066C26.4595 17.8304 26.6741 17.7595 26.8904 17.6939C27.1066 17.6283 27.3244 17.568 27.5437 17.5131C27.7629 17.4582 27.9834 17.4087 28.2051 17.3646C28.4267 17.3205 28.6494 17.2818 28.873 17.2487C29.0966 17.2155 29.3208 17.1879 29.5457 17.1657C29.7707 17.1435 29.996 17.127 30.2218 17.1159C30.4475 17.1047 30.6734 17.0992 30.8995 17.0992L47.9987 17.0992C48.1386 17.0992 48.2784 17.0958 48.4182 17.0889C48.5579 17.082 48.6974 17.0718 48.8367 17.058C48.9759 17.0443 49.1147 17.0272 49.2532 17.0067C49.3915 16.9862 49.5294 16.9622 49.6666 16.9349C49.8038 16.9076 49.9403 16.877 50.076 16.843C50.2118 16.809 50.3466 16.7717 50.4805 16.7311C50.6144 16.6905 50.7472 16.6466 50.879 16.5995C51.0106 16.5523 51.1412 16.502 51.2705 16.4484C51.3997 16.3949 51.5276 16.3382 51.6541 16.2784C51.7806 16.2185 51.9055 16.1557 52.029 16.0897C52.1524 16.0237 52.274 15.9548 52.394 15.8829C52.5141 15.8109 52.6322 15.7361 52.7486 15.6583C52.8649 15.5806 52.9793 15.5 53.0917 15.4167C53.204 15.3334 53.3143 15.2473 53.4225 15.1585C53.5306 15.0698 53.6366 14.9785 53.7403 14.8845C53.8439 14.7905 53.9452 14.694 54.0442 14.5951C54.1431 14.4961 54.2395 14.3948 54.3336 14.2912C54.4275 14.1875 54.5188 14.0816 54.6076 13.9734C54.6964 13.8652 54.7824 13.755 54.8658 13.6426C54.9491 13.5302 55.0297 13.4158 55.1074 13.2995C55.1852 13.1832 55.26 13.065 55.332 12.945C55.4038 12.8249 55.4728 12.7033 55.5388 12.5799C55.6047 12.4564 55.6676 12.3315 55.7275 12.205C55.7873 12.0786 55.8439 11.9506 55.8975 11.8214C55.951 11.6921 56.0014 11.5616 56.0485 11.4299C56.0956 11.2982 56.1395 11.1653 56.1801 11.0314C56.2208 10.8975 56.2581 10.7627 56.2921 10.627C56.3261 10.4913 56.3567 10.3548 56.384 10.2176C56.4113 10.0803 56.4352 9.94254 56.4558 9.8041C56.4763 9.66566 56.4934 9.52683 56.5071 9.3876C56.5208 9.24837 56.5311 9.10888 56.538 8.96913C56.5448 8.82938 56.5483 8.68949 56.5483 8.54961C56.5483 8.40972 56.5448 8.26984 56.538 8.13008C56.5311 7.99033 56.5208 7.85084 56.5071 7.71161C56.4934 7.57239 56.4763 7.43355 56.4558 7.29512C56.4352 7.15668 56.4113 7.0189 56.384 6.88164C56.3567 6.74439 56.3261 6.60793 56.2921 6.47222C56.2581 6.3365 56.2208 6.20168 56.1801 6.06779C56.1395 5.93389 56.0956 5.80107 56.0485 5.66933C56.0014 5.53759 55.951 5.40708 55.8975 5.27782C55.8439 5.14855 55.7873 5.02066 55.7275 4.89418C55.6676 4.76769 55.6047 4.64275 55.5388 4.51935C55.4728 4.39595 55.4038 4.27424 55.332 4.15423C55.26 4.03422 55.1852 3.91604 55.1074 3.7997C55.0297 3.68336 54.9491 3.569 54.8658 3.45661C54.7824 3.34422 54.6964 3.23395 54.6076 3.1258C54.5188 3.01763 54.4275 2.91171 54.3336 2.80804C54.2395 2.70437 54.1431 2.60306 54.0442 2.50412C53.9452 2.40518 53.8439 2.30873 53.7403 2.21477C53.6366 2.1208 53.5306 2.02943 53.4225 1.94067C53.3143 1.8519 53.204 1.76585 53.0917 1.6825C52.9793 1.59915 52.8649 1.51861 52.7486 1.44087C52.6322 1.36313 52.5141 1.28829 52.394 1.21637C52.274 1.14443 52.1524 1.07548 52.029 1.00952C51.9055 0.943568 51.7806 0.880682 51.6541 0.820854C51.5276 0.761027 51.3997 0.704343 51.2705 0.6508C51.1412 0.597255 51.0106 0.546913 50.879 0.499775C50.7472 0.452637 50.6144 0.40876 50.4805 0.368143C50.3466 0.327526 50.2118 0.290219 50.076 0.256221C49.9403 0.222223 49.8038 0.191576 49.6666 0.164278C49.5294 0.136981 49.3915 0.113067 49.2532 0.0925363C49.1147 0.0720061 48.9759 0.0548833 48.8367 0.0411687C48.6974 0.027454 48.5579 0.0171639 48.4182 0.0102984C48.2784 0.0034328 48.1386 0 47.9987 0L30.8995 0C30.3937 0.000174602 29.8882 0.0127545 29.3832 0.0377397C28.8779 0.0627249 28.3737 0.100085 27.8705 0.149821C27.3671 0.199556 26.8654 0.261607 26.3652 0.335974C25.8649 0.41034 25.3668 0.496932 24.8707 0.59575C24.3747 0.69457 23.8814 0.805498 23.3909 0.928527C22.9003 1.05156 22.413 1.18655 21.9291 1.3335C21.4452 1.48044 20.9652 1.63918 20.489 1.80969C20.0129 1.9802 19.5412 2.16229 19.074 2.35596C18.6068 2.54962 18.1446 2.75463 17.6874 2.97098C17.2302 3.18733 16.7787 3.41477 16.3327 3.65329C15.8867 3.8918 15.4468 4.14111 15.0132 4.40123C14.5794 4.66134 14.1523 4.93193 13.7319 5.213C13.3113 5.49407 12.8981 5.78529 12.4919 6.08665C12.0857 6.38801 11.6872 6.69914 11.2963 7.02008C10.9054 7.34102 10.5226 7.67137 10.148 8.01105C9.77326 8.35073 9.40713 8.69942 9.04963 9.05713C8.69199 9.41483 8.34343 9.78108 8.00388 10.1559C7.66426 10.5307 7.33412 10.9136 7.01331 11.3046C6.6925 11.6955 6.38152 12.0942 6.0803 12.5004C5.77908 12.9067 5.488 13.3202 5.20707 13.7407C4.92614 14.1613 4.6557 14.5885 4.39574 15.0223C4.13578 15.4561 3.88662 15.896 3.64826 16.3421C3.40989 16.7882 3.18262 17.2398 2.96642 17.697C2.75023 18.1543 2.54538 18.6165 2.35187 19.0838C2.15837 19.551 1.97644 20.0228 1.80609 20.499C1.63574 20.9752 1.47718 21.4553 1.3304 21.9393C1.18362 22.4233 1.04879 22.9106 0.925929 23.4012C0.803071 23.8918 0.692314 24.3851 0.593669 24.8811C0.495022 25.3772 0.408602 25.8754 0.334409 26.3757C0.260215 26.876 0.198337 27.3778 0.148775 27.8811C0.0992136 28.3844 0.062027 28.8886 0.0372162 29.3937C0.0124054 29.8989 0 30.4044 0 30.9101C0 31.4159 0.0124054 31.9213 0.0372162 32.4265C0.062027 32.9316 0.0992136 33.4359 0.148775 33.9392C0.198337 34.4425 0.260215 34.9443 0.334409 35.4446C0.408602 35.9449 0.495022 36.443 0.593669 36.9391C0.692314 37.4351 0.803071 37.9284 0.925929 38.419C1.04879 38.9097 1.18362 39.397 1.3304 39.881C1.47718 40.3649 1.63574 40.845 1.80609 41.3212C1.97644 41.7975 2.15837 42.2692 2.35187 42.7365C2.54538 43.2037 2.75023 43.6659 2.96642 44.1232C3.18262 44.5804 3.40989 45.032 3.64826 45.4781C3.88662 45.9242 4.13578 46.3641 4.39574 46.798C4.6557 47.2318 4.92614 47.6589 5.20707 48.0795C5.488 48.5001 5.77908 48.9135 6.0803 49.3198C6.38152 49.726 6.6925 50.1247 7.01331 50.5157C7.33412 50.9067 7.66426 51.2896 8.00388 51.6644C8.34343 52.0392 8.69199 52.4054 9.04963 52.7631C9.40713 53.1208 9.77326 53.4695 10.148 53.8092C10.5226 54.1489 10.9054 54.4792 11.2963 54.8002C11.6872 55.1211 12.0857 55.4322 12.4919 55.7336C12.8981 56.035 13.3113 56.3262 13.7319 56.6072C14.1523 56.8883 14.5794 57.1589 15.0132 57.419C15.4468 57.6791 15.8867 57.9284 16.3327 58.1669C16.7787 58.4055 17.2302 58.6329 17.6874 58.8492C18.1446 59.0656 18.6068 59.2706 19.074 59.4643C19.5412 59.658 20.0129 59.84 20.489 60.0105C20.9652 60.1811 21.4452 60.3398 21.9291 60.4868C22.413 60.6337 22.9003 60.7686 23.3909 60.8917C23.8814 61.0147 24.3747 61.1257 24.8707 61.2245C25.3668 61.3233 25.8649 61.4099 26.3652 61.4842C26.8654 61.5586 27.3671 61.6207 27.8705 61.6704C28.3737 61.7201 28.8779 61.7575 29.3832 61.7825C29.8882 61.8075 30.3937 61.82 30.8995 61.8202L47.9987 61.8202C48.1386 61.8202 48.2784 61.8168 48.4182 61.8099C48.5579 61.8031 48.6974 61.7928 48.8367 61.7791C48.9759 61.7653 49.1147 61.7482 49.2532 61.7277C49.3915 61.7072 49.5294 61.6832 49.6666 61.656C49.8038 61.6287 49.9403 61.598 50.076 61.564C50.2118 61.53 50.3466 61.4927 50.4805 61.4521C50.6144 61.4115 50.7472 61.3676 50.879 61.3205C51.0106 61.2733 51.1412 61.223 51.2705 61.1694C51.3997 61.1159 51.5276 61.0592 51.6541 60.9993C51.7806 60.9396 51.9055 60.8767 52.029 60.8107C52.1524 60.7448 52.274 60.6758 52.394 60.6039C52.5141 60.5319 52.6322 60.4571 52.7486 60.3794C52.8649 60.3016 52.9793 60.2211 53.0917 60.1377C53.204 60.0544 53.3143 59.9683 53.4225 59.8795C53.5306 59.7908 53.6366 59.6995 53.7403 59.6055C53.8439 59.5115 53.9452 59.415 54.0442 59.3161C54.1431 59.2171 54.2395 59.1159 54.3336 59.0122C54.4275 58.9085 54.5188 58.8026 54.6076 58.6944C54.6964 58.5863 54.7824 58.476 54.8658 58.3636C54.9491 58.2512 55.0297 58.1369 55.1074 58.0205C55.1852 57.9042 55.26 57.786 55.332 57.666C55.4038 57.546 55.4728 57.4243 55.5388 57.3009C55.6047 57.1775 55.6676 57.0525 55.7275 56.926C55.7873 56.7996 55.8439 56.6717 55.8975 56.5424C55.951 56.4131 56.0014 56.2827 56.0485 56.1509C56.0956 56.0192 56.1395 55.8863 56.1801 55.7524C56.2208 55.6185 56.2581 55.4837 56.2921 55.348C56.3261 55.2123 56.3567 55.0758 56.384 54.9386C56.4113 54.8013 56.4352 54.6636 56.4558 54.5251C56.4763 54.3867 56.4934 54.2478 56.5071 54.1086C56.5208 53.9694 56.5311 53.8299 56.538 53.6902C56.5448 53.5504 56.5483 53.4105 56.5483 53.2706C56.5483 53.1307 56.5448 52.9909 56.538 52.8511C56.5311 52.7114 56.5208 52.5719 56.5071 52.4326C56.4934 52.2934 56.4763 52.1546 56.4558 52.0161C56.4352 51.8777 56.4113 51.7399 56.384 51.6027C56.3567 51.4654 56.3261 51.3289 56.2921 51.1932C56.2581 51.0575 56.2208 50.9227 56.1801 50.7888C56.1395 50.6549 56.0956 50.5221 56.0485 50.3903C56.0014 50.2586 55.951 50.1281 55.8975 49.9988C55.8439 49.8696 55.7873 49.7417 55.7275 49.6152C55.6676 49.4887 55.6047 49.3638 55.5388 49.2403C55.4728 49.117 55.4038 48.9953 55.332 48.8753C55.26 48.7553 55.1852 48.6371 55.1074 48.5207C55.0297 48.4044 54.9491 48.29 54.8658 48.1776C54.7824 48.0652 54.6964 47.955 54.6076 47.8468C54.5188 47.7386 54.4275 47.6328 54.3336 47.529C54.2395 47.4254 54.1431 47.3241 54.0442 47.2251C53.9452 47.1262 53.8439 47.0297 53.7403 46.9358C53.6366 46.8418 53.5306 46.7504 53.4225 46.6617C53.3143 46.5729 53.204 46.4868 53.0917 46.4035C52.9793 46.3202 52.8649 46.2396 52.7486 46.1619C52.6322 46.0842 52.5141 46.0093 52.394 45.9374C52.274 45.8655 52.1524 45.7965 52.029 45.7305C51.9055 45.6646 51.7806 45.6017 51.6541 45.5418C51.5276 45.4821 51.3997 45.4254 51.2705 45.3718C51.1412 45.3182 51.0106 45.2679 50.879 45.2208C50.7472 45.1736 50.6144 45.1298 50.4805 45.0892C50.3466 45.0485 50.2118 45.0112 50.076 44.9772C49.9403 44.9432 49.8038 44.9126 49.6666 44.8853C49.5294 44.858 49.3915 44.8341 49.2532 44.8136C49.1147 44.793 48.9759 44.7759 48.8367 44.7622C48.6974 44.7484 48.5579 44.7382 48.4182 44.7313C48.2784 44.7244 48.1386 44.721 47.9987 44.721Z"   fill="#755BE7" >
</path>
<g opacity="0.6">
<circle cx="30.899555206298828" cy="30.910144805908203" r="8.549610137939453"   fill="#FFA000" >
</circle>
</g>
<g opacity="0.8">
<circle cx="39.44911575317383" cy="30.910144805908203" r="8.549610137939453"   fill="#FFA000" >
</circle>
</g>
<circle cx="47.99870681762695" cy="30.910144805908203" r="8.549610137939453"   fill="#FFA000" >
</circle>
</svg>
